<svg width="16" height="17" viewBox="0 0 16 17" fill="none" xmlns="http://www.w3.org/2000/svg">
<g clip-path="url(#clip0_10_511)">
<path d="M16 8.44434C16 4.02606 12.4183 0.444336 8 0.444336C3.58172 0.444336 0 4.02606 0 8.44434C0 12.4373 2.92547 15.747 6.75 16.3471V10.7568H4.71875V8.44434H6.75V6.68184C6.75 4.67684 7.94438 3.56934 9.77172 3.56934C10.6467 3.56934 11.5625 3.72559 11.5625 3.72559V5.69434H10.5538C9.56 5.69434 9.25 6.31105 9.25 6.94434V8.44434H11.4688L11.1141 10.7568H9.25V16.3471C13.0745 15.747 16 12.4373 16 8.44434Z" fill="white"/>
</g>
<defs>
<clipPath id="clip0_10_511">
<rect width="16" height="16" fill="white" transform="translate(0 0.444336)"/>
</clipPath>
</defs>
</svg>
