<svg width="16" height="17" viewBox="0 0 16 17" fill="none" xmlns="http://www.w3.org/2000/svg">
<path fill-rule="evenodd" clip-rule="evenodd" d="M4.39787 13.9058C5.5152 14.5691 6.58186 14.9665 7.99253 14.9671C11.6245 14.9671 14.5832 12.0112 14.5852 8.37716C14.5865 4.73584 11.6419 1.78384 7.99786 1.78251C4.3632 1.78251 1.40654 4.7385 1.40521 8.37183C1.40454 9.85516 1.83921 10.9658 2.56921 12.1278L1.90321 14.5598L4.39787 13.9058ZM11.6092 10.0318C11.8079 10.1312 11.9399 10.1805 11.9892 10.2632C12.0392 10.3458 12.0392 10.7425 11.8739 11.2058C11.7085 11.6685 10.9172 12.0912 10.5365 12.1478C10.1952 12.1985 9.76319 12.2198 9.28852 12.0692C9.00119 11.9778 8.63186 11.8558 8.15919 11.6518C6.17186 10.7938 4.87453 8.79249 4.7752 8.66049L4.77285 8.65735C4.6658 8.5142 3.96654 7.5791 3.96654 6.61117C3.96654 5.63583 4.47853 5.15717 4.65987 4.9585C4.8412 4.75984 5.05587 4.7105 5.18787 4.7105L5.56787 4.71717C5.6892 4.72317 5.85253 4.67117 6.01386 5.05717C6.17853 5.45384 6.57453 6.42917 6.62453 6.52783C6.67453 6.62717 6.7072 6.74317 6.6412 6.87516C6.57453 7.00783 6.54186 7.0905 6.4412 7.20516C6.34186 7.32116 6.2332 7.46383 6.14386 7.5525C6.0452 7.65116 5.94186 7.7585 6.0572 7.9565C6.17253 8.15516 6.57053 8.80383 7.15919 9.32916C7.91586 10.0045 8.55453 10.2132 8.75252 10.3125C8.95052 10.4118 9.06652 10.3952 9.18186 10.2632C9.29719 10.1312 9.67719 9.68449 9.80919 9.48649C9.94186 9.28782 10.0739 9.32116 10.2552 9.38716C10.4372 9.45316 11.4112 9.93249 11.6092 10.0318Z" fill="white"/>
<path fill-rule="evenodd" clip-rule="evenodd" d="M1.12454 12.3352L-0.00012207 16.4438L4.2032 15.3411C5.3612 15.9731 6.66853 16.3058 7.99519 16.3065C12.3652 16.3065 15.9218 12.7498 15.9238 8.37849C15.9245 6.25983 15.1005 4.26784 13.6038 2.76918C12.1065 1.27051 10.1159 0.444514 7.99519 0.443848C3.6252 0.443848 0.0685444 4.0005 0.0665445 8.37116C0.0658778 9.76916 0.430544 11.1325 1.12454 12.3352ZM7.99253 14.9671C6.58186 14.9665 5.5152 14.5691 4.39787 13.9058L1.90321 14.5598L2.56921 12.1278C1.83921 10.9658 1.40454 9.85516 1.40521 8.37183C1.40654 4.7385 4.3632 1.78251 7.99786 1.78251C11.6419 1.78384 14.5865 4.73584 14.5852 8.37716C14.5832 12.0112 11.6245 14.9671 7.99253 14.9671Z" fill="white"/>
</svg>
