<svg width="24" height="17" viewBox="0 0 24 17" fill="none" xmlns="http://www.w3.org/2000/svg">
<path d="M23.4982 2.6374C23.2216 1.59873 22.4096 0.782482 21.3763 0.504442C19.5055 1.59779e-07 12 0 12 0C12 0 4.49456 1.59779e-07 2.62364 0.504442C1.59039 0.782482 0.7784 1.59873 0.501811 2.6374C1.58946e-07 4.51813 0 8.44444 0 8.44444C0 8.44444 1.58946e-07 12.3708 0.501811 14.2515C0.7784 15.2902 1.59039 16.1064 2.62364 16.3844C4.49456 16.8889 12 16.8889 12 16.8889C12 16.8889 19.5055 16.8889 21.3763 16.3844C22.4096 16.1064 23.2216 15.2902 23.4982 14.2515C24 12.3708 24 8.44444 24 8.44444C24 8.44444 23.998 4.51813 23.4982 2.6374Z" fill="white"/>
<path d="M9.59778 12.0005L15.8329 8.4009L9.59778 4.80127V12.0005Z" fill="#292929"/>
</svg>
